<svg width="94" height="93" viewBox="0 0 94 93" fill="none" xmlns="http://www.w3.org/2000/svg">
<path fill-rule="evenodd" clip-rule="evenodd" d="M47 19.375C47 12.9547 52.2047 7.75 58.625 7.75H74.125C80.5453 7.75 85.75 12.9547 85.75 19.375V73.625C85.75 80.0453 80.5453 85.25 74.125 85.25H58.625C52.2047 85.25 47 80.0453 47 73.625V19.375ZM58.625 15.5C56.4849 15.5 54.75 17.2349 54.75 19.375V73.625C54.75 75.7651 56.4849 77.5 58.625 77.5H74.125C76.2651 77.5 78 75.7651 78 73.625V19.375C78 17.2349 76.2651 15.5 74.125 15.5H58.625ZM8.25 34.875C8.25 28.4547 13.4547 23.25 19.875 23.25H39.25C41.3901 23.25 43.125 24.9849 43.125 27.125C43.125 29.2651 41.3901 31 39.25 31H19.875C17.7349 31 16 32.7349 16 34.875V58.125C16 60.2651 17.7349 62 19.875 62H39.25C41.3901 62 43.125 63.7349 43.125 65.875C43.125 68.0151 41.3901 69.75 39.25 69.75H19.875C13.4547 69.75 8.25 64.5453 8.25 58.125V34.875ZM66.375 23.25C68.5151 23.25 70.25 24.9849 70.25 27.125V65.875C70.25 68.0151 68.5151 69.75 66.375 69.75C64.2349 69.75 62.5 68.0151 62.5 65.875V27.125C62.5 24.9849 64.2349 23.25 66.375 23.25ZM8.25 81.375C8.25 79.2349 9.9849 77.5 12.125 77.5H39.25C41.3901 77.5 43.125 79.2349 43.125 81.375C43.125 83.5151 41.3901 85.25 39.25 85.25H12.125C9.9849 85.25 8.25 83.5151 8.25 81.375Z" fill="white"/>
</svg>
