<svg width="94" height="93" viewBox="0 0 94 93" fill="none" xmlns="http://www.w3.org/2000/svg">
<path fill-rule="evenodd" clip-rule="evenodd" d="M16.9766 38.75C16.3391 41.2271 16 43.8239 16 46.5C16 49.1761 16.3391 51.7729 16.9766 54.25H31.9075C31.6462 51.8193 31.5 49.2365 31.5 46.5C31.5 43.7635 31.6462 41.1807 31.9075 38.75H16.9766ZM20.1472 31H33.2107C34.3926 25.9125 36.0491 21.7195 37.7296 18.3968C38.0424 17.7782 38.3558 17.1903 38.6668 16.6329C30.7794 18.8288 24.1587 24.0653 20.1472 31ZM47 17.8436C46.2739 18.9308 45.4623 20.2793 44.6454 21.8944C43.4225 24.3125 42.1815 27.3401 41.1986 31H52.8014C51.8185 27.3401 50.5775 24.3125 49.3546 21.8944C48.5377 20.2793 47.7261 18.9308 47 17.8436ZM54.292 38.75H39.708C39.4168 41.1464 39.25 43.7286 39.25 46.5C39.25 49.2714 39.4168 51.8536 39.708 54.25H54.292C54.5832 51.8536 54.75 49.2714 54.75 46.5C54.75 43.7286 54.5832 41.1464 54.292 38.75ZM62.0925 54.25C62.3538 51.8193 62.5 49.2365 62.5 46.5C62.5 43.7635 62.3538 41.1807 62.0925 38.75H77.0234C77.6609 41.2271 78 43.8239 78 46.5C78 49.1761 77.6609 51.7729 77.0234 54.25H62.0925ZM52.8014 62H41.1986C42.1815 65.6599 43.4225 68.6875 44.6454 71.1056C45.4623 72.7207 46.2739 74.0692 47 75.1564C47.7261 74.0692 48.5377 72.7207 49.3546 71.1056C50.5775 68.6875 51.8185 65.6599 52.8014 62ZM38.6668 76.3672C38.3559 75.8097 38.0424 75.2218 37.7296 74.6032C36.0491 71.2805 34.3926 67.0875 33.2107 62H20.1472C24.1587 68.9347 30.7794 74.1712 38.6668 76.3672ZM55.3332 76.3671C55.6442 75.8097 55.9576 75.2218 56.2704 74.6032C57.9509 71.2805 59.6074 67.0875 60.7893 62H73.8527C69.8413 68.9347 63.2206 74.1712 55.3332 76.3671ZM73.8528 31H60.7893C59.6074 25.9125 57.9509 21.7195 56.2704 18.3968C55.9576 17.7782 55.6442 17.1903 55.3332 16.6329C63.2206 18.8288 69.8413 24.0653 73.8528 31ZM8.25 46.5C8.25 25.099 25.599 7.75 47 7.75C68.401 7.75 85.75 25.099 85.75 46.5C85.75 67.901 68.401 85.25 47 85.25C25.599 85.25 8.25 67.901 8.25 46.5Z" fill="#142532"/>
</svg>
