<svg width="94" height="97" viewBox="0 0 94 97" fill="none" xmlns="http://www.w3.org/2000/svg">
<g filter="url(#filter0_d_4_202)">
<path d="M31.5 40.6875C31.5 43.8977 28.8977 46.5 25.6875 46.5C22.4773 46.5 19.875 43.8977 19.875 40.6875C19.875 37.4773 22.4773 34.875 25.6875 34.875C28.8977 34.875 31.5 37.4773 31.5 40.6875Z" fill="#142532"/>
<path d="M41.1875 31C44.3977 31 47 28.3977 47 25.1875C47 21.9773 44.3977 19.375 41.1875 19.375C37.9773 19.375 35.375 21.9773 35.375 25.1875C35.375 28.3977 37.9773 31 41.1875 31Z" fill="#142532"/>
<path d="M66.375 25.1875C66.375 28.3977 63.7727 31 60.5625 31C57.3523 31 54.75 28.3977 54.75 25.1875C54.75 21.9773 57.3523 19.375 60.5625 19.375C63.7727 19.375 66.375 21.9773 66.375 25.1875Z" fill="#142532"/>
<path d="M29.5625 65.875C32.7727 65.875 35.375 63.2726 35.375 60.0625C35.375 56.8523 32.7727 54.25 29.5625 54.25C26.3523 54.25 23.75 56.8523 23.75 60.0625C23.75 63.2726 26.3523 65.875 29.5625 65.875Z" fill="#142532"/>
<path fill-rule="evenodd" clip-rule="evenodd" d="M4.375 46.5C4.375 22.9589 23.4589 3.875 47 3.875C70.1384 3.875 89.625 20.7282 89.625 42.625V42.6816C89.6251 44.7291 89.6253 48.2276 88.3946 52.3073C85.1696 62.9977 73.4285 65.8609 64.4172 63.5592C62.5425 63.0804 60.6566 62.562 58.8453 62.0414C55.7232 61.1441 52.8813 63.8976 53.4561 66.7719L54.687 72.9263L55.1308 75.5889C56.2818 82.4951 50.8825 89.5185 43.1889 88.543C30.1445 86.889 20.3392 81.7653 13.8143 74.1399C7.30923 66.5377 4.375 56.8126 4.375 46.5ZM47 11.625C27.7391 11.625 12.125 27.2391 12.125 46.5C12.125 55.3561 14.6311 63.1742 19.7028 69.1012C24.7546 75.005 32.6625 79.3963 44.1638 80.8546C45.9722 81.0838 47.9098 79.4045 47.4862 76.863L47.063 74.3236L45.8566 68.2918C44.0809 59.4133 52.5889 52.1795 60.9861 54.593C62.7398 55.097 64.5498 55.5943 66.3351 56.0503C73.2557 57.818 79.4507 55.1213 80.9748 50.069C81.8633 47.1238 81.875 44.5855 81.875 42.625C81.875 25.7718 66.6637 11.625 47 11.625Z" fill="#142532"/>
</g>
<defs>
<filter id="filter0_d_4_202" x="-3.5" y="0" width="101" height="101" filterUnits="userSpaceOnUse" color-interpolation-filters="sRGB">
<feFlood flood-opacity="0" result="BackgroundImageFix"/>
<feColorMatrix in="SourceAlpha" type="matrix" values="0 0 0 0 0 0 0 0 0 0 0 0 0 0 0 0 0 0 127 0" result="hardAlpha"/>
<feOffset dy="4"/>
<feGaussianBlur stdDeviation="2"/>
<feComposite in2="hardAlpha" operator="out"/>
<feColorMatrix type="matrix" values="0 0 0 0 0 0 0 0 0 0 0 0 0 0 0 0 0 0 0.25 0"/>
<feBlend mode="normal" in2="BackgroundImageFix" result="effect1_dropShadow_4_202"/>
<feBlend mode="normal" in="SourceGraphic" in2="effect1_dropShadow_4_202" result="shape"/>
</filter>
</defs>
</svg>
