<svg width="94" height="93" viewBox="0 0 94 93" fill="none" xmlns="http://www.w3.org/2000/svg">
<path fill-rule="evenodd" clip-rule="evenodd" d="M42.9071 9.44533C45.1676 7.18489 48.8325 7.18489 51.0929 9.44533L62.1624 20.5148C64.4228 22.7753 64.4228 26.4402 62.1624 28.7006L51.0929 39.7701C48.8325 42.0305 45.1676 42.0305 42.9071 39.7701L31.8376 28.7006C29.5772 26.4402 29.5772 22.7753 31.8376 20.5148L42.9071 9.44533ZM47 16.3126L38.7049 24.6077L47 32.9028L55.2951 24.6077L47 16.3126ZM21.0148 31.3376C23.2753 29.0771 26.9402 29.0772 29.2006 31.3376L40.2701 42.4071C42.5305 44.6675 42.5305 48.3324 40.2701 50.5929L29.2006 61.6623C26.9401 63.9228 23.2752 63.9228 21.0148 61.6623L9.94533 50.5929C7.68489 48.3324 7.68489 44.6675 9.94533 42.4071L21.0148 31.3376ZM25.1077 38.2049L16.8126 46.5L25.1077 54.7951L33.4028 46.5L25.1077 38.2049ZM64.7994 31.3376C67.0599 29.0772 70.7248 29.0772 72.9852 31.3376L84.0547 42.4071C86.3151 44.6675 86.3151 48.3324 84.0547 50.5929L72.9852 61.6624C70.7247 63.9228 67.0598 63.9228 64.7994 61.6624L53.7299 50.5929C51.4695 48.3324 51.4695 44.6675 53.7299 42.4071L64.7994 31.3376ZM68.8923 38.2049L60.5972 46.5L68.8923 54.7951L77.1874 46.5L68.8923 38.2049ZM42.9071 53.2299C45.1675 50.9695 48.8324 50.9695 51.0928 53.2299L62.1623 64.2994C64.4228 66.5598 64.4228 70.2247 62.1623 72.4852L51.0928 83.5547C48.8324 85.8151 45.1675 85.8151 42.9071 83.5547L31.8376 72.4852C29.5771 70.2247 29.5771 66.5598 31.8376 64.2994L42.9071 53.2299ZM46.9999 60.0972L38.7048 68.3923L46.9999 76.6874L55.2951 68.3923L46.9999 60.0972Z" fill="#142532"/>
</svg>
